<svg width="49" height="48" viewBox="0 0 49 48" fill="none" xmlns="http://www.w3.org/2000/svg">
<path d="M12.5 15H24.5V18H12.5V15ZM12.5 9H30.5V12H12.5V9ZM12.5 3H30.5V6H12.5V3Z" fill="#AABBE4"/>
<path d="M7.5665 42L16.013 27.006L27.164 36.741C27.5011 37.0409 27.9015 37.261 28.3354 37.3848C28.7693 37.5085 29.2255 37.5328 29.6701 37.4558C30.1147 37.3789 30.5362 37.2026 30.9033 36.9401C31.2703 36.6777 31.5734 36.3358 31.79 35.94L42.245 20.3355L39.7535 18.6645L29.2535 34.3365L29.1485 34.491L17.996 24.756C17.659 24.4578 17.2594 24.239 16.8265 24.1159C16.3937 23.9929 15.9387 23.9686 15.4952 24.0449C15.0518 24.1212 14.6311 24.2962 14.2643 24.5568C13.8975 24.8175 13.5939 25.1573 13.376 25.551L6.5 37.7745V3H3.5V42C3.50079 42.7954 3.81712 43.558 4.37956 44.1204C4.94199 44.6829 5.70459 44.9992 6.5 45H45.5V42H7.5665Z" fill="#AABBE4"/>
</svg>
