<svg width="49" height="48" viewBox="0 0 49 48" fill="none" xmlns="http://www.w3.org/2000/svg">
<path fill-rule="evenodd" clip-rule="evenodd" d="M18.5 10.5C18.5 9.30653 18.9741 8.16193 19.818 7.31802C20.6619 6.47411 21.8065 6 23 6H26C27.1935 6 28.3381 6.47411 29.182 7.31802C30.0259 8.16193 30.5 9.30653 30.5 10.5V13.5C30.5 14.6935 30.0259 15.8381 29.182 16.682C28.3381 17.5259 27.1935 18 26 18V21H33.5C33.8978 21 34.2794 21.158 34.5607 21.4393C34.842 21.7206 35 22.1022 35 22.5V25.5C35 25.8978 34.842 26.2794 34.5607 26.5607C34.2794 26.842 33.8978 27 33.5 27C33.1022 27 32.7206 26.842 32.4393 26.5607C32.158 26.2794 32 25.8978 32 25.5V24H17V25.5C17 25.8978 16.842 26.2794 16.5607 26.5607C16.2794 26.842 15.8978 27 15.5 27C15.1022 27 14.7206 26.842 14.4393 26.5607C14.158 26.2794 14 25.8978 14 25.5V22.5C14 22.1022 14.158 21.7206 14.4393 21.4393C14.7206 21.158 15.1022 21 15.5 21H23V18C21.8065 18 20.6619 17.5259 19.818 16.682C18.9741 15.8381 18.5 14.6935 18.5 13.5V10.5ZM26 15C26.3978 15 26.7794 14.842 27.0607 14.5607C27.342 14.2794 27.5 13.8978 27.5 13.5V10.5C27.5 10.1022 27.342 9.72064 27.0607 9.43934C26.7794 9.15804 26.3978 9 26 9H23C22.6022 9 22.2206 9.15804 21.9393 9.43934C21.658 9.72064 21.5 10.1022 21.5 10.5V13.5C21.5 13.8978 21.658 14.2794 21.9393 14.5607C22.2206 14.842 22.6022 15 23 15H26ZM9.5 34.5C9.5 33.3065 9.97411 32.1619 10.818 31.318C11.6619 30.4741 12.8065 30 14 30H17C18.1935 30 19.3381 30.4741 20.182 31.318C21.0259 32.1619 21.5 33.3065 21.5 34.5V37.5C21.5 38.6935 21.0259 39.8381 20.182 40.682C19.3381 41.5259 18.1935 42 17 42H14C12.8065 42 11.6619 41.5259 10.818 40.682C9.97411 39.8381 9.5 38.6935 9.5 37.5V34.5ZM14 33C13.6022 33 13.2206 33.158 12.9393 33.4393C12.658 33.7206 12.5 34.1022 12.5 34.5V37.5C12.5 37.8978 12.658 38.2794 12.9393 38.5607C13.2206 38.842 13.6022 39 14 39H17C17.3978 39 17.7794 38.842 18.0607 38.5607C18.342 38.2794 18.5 37.8978 18.5 37.5V34.5C18.5 34.1022 18.342 33.7206 18.0607 33.4393C17.7794 33.158 17.3978 33 17 33H14ZM27.5 34.5C27.5 33.3065 27.9741 32.1619 28.818 31.318C29.6619 30.4741 30.8065 30 32 30H35C36.1935 30 37.3381 30.4741 38.182 31.318C39.0259 32.1619 39.5 33.3065 39.5 34.5V37.5C39.5 38.6935 39.0259 39.8381 38.182 40.682C37.3381 41.5259 36.1935 42 35 42H32C30.8065 42 29.6619 41.5259 28.818 40.682C27.9741 39.8381 27.5 38.6935 27.5 37.5V34.5ZM32 33C31.6022 33 31.2206 33.158 30.9393 33.4393C30.658 33.7206 30.5 34.1022 30.5 34.5V37.5C30.5 37.8978 30.658 38.2794 30.9393 38.5607C31.2206 38.842 31.6022 39 32 39H35C35.3978 39 35.7794 38.842 36.0607 38.5607C36.342 38.2794 36.5 37.8978 36.5 37.5V34.5C36.5 34.1022 36.342 33.7206 36.0607 33.4393C35.7794 33.158 35.3978 33 35 33H32Z" fill="#AABBE4"/>
</svg>
