<svg width="48" height="48" viewBox="0 0 48 48" fill="none" xmlns="http://www.w3.org/2000/svg">
<path d="M37.5 30.5H26.5V29.5H37.5C38.163 29.5 38.7989 29.2366 39.2678 28.7678C39.7366 28.2989 40 27.663 40 27V12C40 11.337 39.7366 10.7011 39.2678 10.2322C38.7989 9.76339 38.163 9.5 37.5 9.5H13.5C12.837 9.5 12.2011 9.76339 11.7322 10.2322C11.5091 10.4554 11.3325 10.7163 11.2087 11H10.5C10.3804 11 10.2614 11.003 10.1432 11.009C10.3072 10.4535 10.6081 9.94211 11.0251 9.52513C11.6815 8.86875 12.5717 8.5 13.5 8.5H37.5C38.4283 8.5 39.3185 8.86875 39.9749 9.52513C40.6313 10.1815 41 11.0717 41 12V27C41 27.9283 40.6313 28.8185 39.9749 29.4749C39.3185 30.1313 38.4283 30.5 37.5 30.5ZM43.5 36.5H26.5V35.5H43.5C43.6326 35.5 43.7598 35.5527 43.8536 35.6464C43.9473 35.7402 44 35.8674 44 36C44 36.1326 43.9473 36.2598 43.8536 36.3536C43.7598 36.4473 43.6326 36.5 43.5 36.5ZM13.8536 36.3536C13.7598 36.4473 13.6326 36.5 13.5 36.5C13.3674 36.5 13.2402 36.4473 13.1464 36.3536C13.0527 36.2598 13 36.1326 13 36C13 35.8674 13.0527 35.7402 13.1464 35.6464C13.2402 35.5527 13.3674 35.5 13.5 35.5C13.6326 35.5 13.7598 35.5527 13.8536 35.6464C13.9473 35.7402 14 35.8674 14 36C14 36.1326 13.9473 36.2598 13.8536 36.3536ZM5.5 19.5C5.5 18.5717 5.86875 17.6815 6.52513 17.0251C7.1815 16.3687 8.07174 16 9 16H18C18.9283 16 19.8185 16.3687 20.4749 17.0251C21.1313 17.6815 21.5 18.5717 21.5 19.5V37.5C21.5 38.4283 21.1313 39.3185 20.4749 39.9749C19.8185 40.6313 18.9283 41 18 41H9C8.07174 41 7.1815 40.6313 6.52513 39.9749C5.86875 39.3185 5.5 38.4283 5.5 37.5V19.5ZM9 17C8.33696 17 7.70107 17.2634 7.23223 17.7322C6.76339 18.2011 6.5 18.837 6.5 19.5V37.5C6.5 38.163 6.76339 38.7989 7.23223 39.2678C7.70108 39.7366 8.33696 40 9 40H18C18.663 40 19.2989 39.7366 19.7678 39.2678C20.2366 38.7989 20.5 38.163 20.5 37.5V19.5C20.5 18.837 20.2366 18.2011 19.7678 17.7322C19.2989 17.2634 18.663 17 18 17H9Z" stroke="#AABBE4" stroke-width="2"/>
</svg>
